Coordinates
nRows=10
nColumns=24

# SIMM Motion File Header:
name Coordinates
datacolumns 24
datarows 10
otherdata 1
range 0.44000000000000006000 0.44900000000000007000
endheader
time	pelvis_tx	pelvis_ty	pelvis_tz	pelvis_tilt	pelvis_list	pelvis_rotation	hip_flexion_r	hip_adduction_r	hip_rotation_r	knee_angle_r	ankle_angle_r	subtalar_angle_r	mtp_angle_r	hip_flexion_l	hip_adduction_l	hip_rotation_l	knee_angle_l	ankle_angle_l	subtalar_angle_l	mtp_angle_l	lumbar_extension	lumbar_bending	lumbar_rotation
      0.44000000000000006000	     -1.22052864010743110000	      0.97492582099635161000	     -0.19624295273796818000	     14.37232634443315500000	     -1.12276812224291980000	     -8.74211356953802370000	    -39.61682363223825800000	     -5.59351994295543700000	      5.40604603121037640000	    -12.90804127952322100000	     -7.78250408698709160000	     -0.00000000000000006369	      0.00000000000000007136	      9.95975580096237860000	     -3.95463526111450530000	     -3.75564831218186690000	     -3.49356710055029040000	     -2.70643248298220260000	     -0.00000000000000070878	      0.00000000000000116747	    -24.57490499717370000000	     -2.86007394199130040000	     11.78041690260913100000
      0.44100000000000006000	     -1.21850014458210530000	      0.97458247971971690000	     -0.19643698191673353000	     14.38933088331201500000	     -1.03286140248179610000	     -8.73536560079561040000	    -39.55236182819557900000	     -5.68332648531660660000	      5.32370732447113150000	    -13.21067478093548400000	     -8.04327183762325680000	     -0.00000000000000006869	      0.00000000000000008190	     10.05063993246985300000	     -3.83035113474064600000	     -3.78392424043535370000	     -3.83225055666879080000	     -2.82576773499668340000	     -0.00000000000000073647	      0.00000000000000122077	    -24.56327184093407100000	     -2.96508184616214270000	     11.74981138915051900000
      0.44200000000000006000	     -1.21647447193098190000	      0.97423672605678624000	     -0.19663202087978962000	     14.40639679924567500000	     -0.94340841359563421000	     -8.72783427809157080000	    -39.48627267116417300000	     -5.77212619571822220000	      5.24109310850523790000	    -13.51524871565359500000	     -8.30183924779943540000	     -0.00000000000000006372	      0.00000000000000009095	     10.14156649995010900000	     -3.70680520012392960000	     -3.80853834634979860000	     -4.17146674673967240000	     -2.94431370074680210000	     -0.00000000000000079496	      0.00000000000000127876	    -24.55206173030797600000	     -3.06929673592077190000	     11.71854209545987800000
      0.44300000000000006000	     -1.21445262867750860000	      0.97388770783328438000	     -0.19682843028122779000	     14.42354595569923400000	     -0.85457368606460360000	     -8.71923891397836570000	    -39.41797784175836500000	     -5.85955673189522310000	      5.15810706690256900000	    -13.82245328621216300000	     -8.55742519259507260000	     -0.00000000000000004508	      0.00000000000000009792	     10.23255296688180300000	     -3.58426332296417230000	     -3.82818630983034190000	     -4.51141044308239270000	     -3.06183592420317960000	     -0.00000000000000089543	      0.00000000000000134288	    -24.54142600433394600000	     -3.17243265947287290000	     11.68637225875563400000
      0.44400000000000006000	     -1.21243078542403500000	      0.97353868960978251000	     -0.19702483968266596000	     14.44069511215279500000	     -0.76573895853357299000	     -8.71064354986516070000	    -39.34968301235256400000	     -5.94698726807222400000	      5.07512102529989930000	    -14.12965785677073100000	     -8.81301113739070980000	     -0.00000000000000002644	      0.00000000000000010488	     10.32353943381349700000	     -3.46172144580441500000	     -3.84783427331088520000	     -4.85135413942511300000	     -3.17935814765955760000	     -0.00000000000000099589	      0.00000000000000140701	    -24.53079027835991600000	     -3.27556858302497390000	     11.65420242205139100000
      0.44500000000000006000	     -1.21041727530925920000	      0.97318571953771482000	     -0.19722445514836542000	     14.45878011528947500000	     -0.67861517264338334000	     -8.69955187907564390000	    -39.27770869569331300000	     -6.03112213856346900000	      4.99158014263488070000	    -14.44219971314943000000	     -9.06484919216452670000	     -0.00000000000000000351	      0.00000000000000010592	     10.41419687076382200000	     -3.34144327329356150000	     -3.85750995147449280000	     -5.19402729753265380000	     -3.30245820056342150000	     -0.00000000000000105095	      0.00000000000000147775	    -24.52229239291565900000	     -3.37602793179733850000	     11.61999020996543500000
      0.44600000000000006000	     -1.20840446693343020000	      0.97283241667794851000	     -0.19742434059878960000	     14.47694392667469600000	     -0.59163546624452901000	     -8.68824999270217190000	    -39.20542452705595300000	     -6.11497947893663160000	      4.90799253644865720000	    -14.75519102578526700000	     -9.31637163471929950000	      0.00000000000000001978	      0.00000000000000010646	     10.50482659988868900000	     -3.22135572880096580000	     -3.86634585710488340000	     -5.53693030536347400000	     -3.42602796605733890000	     -0.00000000000000110218	      0.00000000000000154905	    -24.51397453639157900000	     -3.47626188449330930000	     11.58560600814056200000
      0.44700000000000006000	     -1.20639558620820430000	      0.97247904071489588000	     -0.19762560970914600000	     14.49629475182251600000	     -0.50544320305905510000	     -8.67595668437662230000	    -39.13221620519381400000	     -6.19753801571955790000	      4.82425583010428300000	    -15.07053196297954000000	     -9.56795857422548220000	      0.00000000000000004219	      0.00000000000000010799	     10.59446975848624100000	     -3.10209410551141170000	     -3.87110441159697190000	     -5.88155516957031650000	     -3.55093221596823530000	     -0.00000000000000114170	      0.00000000000000164674	    -24.50745635485359800000	     -3.57541739777959800000	     11.55034945237554600000
      0.44800000000000006000	     -1.20439207778881570000	      0.97212556475995204000	     -0.19782877141257660000	     14.51726919414230500000	     -0.42032801780096535000	     -8.66230729261144820000	    -39.05774381117634400000	     -6.27832002734450520000	      4.74031518208311910000	    -15.38908675573384800000	     -9.81963373373479520000	      0.00000000000000006339	      0.00000000000000011087	     10.68276346950366900000	     -2.98396219098363160000	     -3.87028589737015240000	     -6.22853521757355910000	     -3.67766179586552730000	     -0.00000000000000116518	      0.00000000000000178053	    -24.50339979870149400000	     -3.67309780370010940000	     11.51389967637847700000
      0.44900000000000007000	     -1.20238856936942700000	      0.97177208880500809000	     -0.19803193311600720000	     14.53824363646209300000	     -0.33521283254287559000	     -8.64865790084627580000	    -38.98327141715887500000	     -6.35910203896945260000	      4.65637453406195510000	    -15.70764154848815300000	    -10.07130889324410800000	      0.00000000000000008459	      0.00000000000000011375	     10.77105718052109900000	     -2.86583027645585190000	     -3.86946738314333280000	     -6.57551526557680170000	     -3.80439137576281940000	     -0.00000000000000118867	      0.00000000000000191432	    -24.49934324254939000000	     -3.77077820962062080000	     11.47744990038141000000
